<svg width="1280" height="820" viewBox="0 0 1280 820" fill="none" xmlns="http://www.w3.org/2000/svg">
  <rect width="1280" height="820" fill="#061513"/>
  <rect x="64" y="54" width="1152" height="712" rx="28" fill="#0f172a" stroke="#34d399" stroke-opacity=".35"/>
  <rect x="112" y="108" width="1056" height="112" rx="22" fill="#052e2b"/>
  <rect x="112" y="266" width="312" height="392" rx="22" fill="#10231f"/>
  <rect x="484" y="266" width="312" height="392" rx="22" fill="#10231f"/>
  <rect x="856" y="266" width="312" height="392" rx="22" fill="#10231f"/>
  <circle cx="268" cy="386" r="78" fill="#34d399" fill-opacity=".26"/>
  <circle cx="640" cy="386" r="78" fill="#2dd4bf" fill-opacity=".26"/>
  <circle cx="1012" cy="386" r="78" fill="#22d3ee" fill-opacity=".22"/>
  <text x="154" y="171" fill="#f8fafc" font-family="Inter, Arial" font-size="44" font-weight="700">Food Ordering Web Application</text>
  <text x="154" y="204" fill="#99f6e4" font-family="Inter, Arial" font-size="20">Cart, checkout, wishlist, authentication, and order tracking</text>
  <text x="174" y="532" fill="#f8fafc" font-family="Inter, Arial" font-size="28" font-weight="700">Browse</text>
  <text x="546" y="532" fill="#f8fafc" font-family="Inter, Arial" font-size="28" font-weight="700">Checkout</text>
  <text x="918" y="532" fill="#f8fafc" font-family="Inter, Arial" font-size="28" font-weight="700">Track</text>
  <g fill="#1e293b">
    <rect x="174" y="570" width="188" height="18" rx="9"/>
    <rect x="546" y="570" width="188" height="18" rx="9"/>
    <rect x="918" y="570" width="188" height="18" rx="9"/>
    <rect x="174" y="614" width="118" height="38" rx="12" fill="#34d399"/>
    <rect x="546" y="614" width="118" height="38" rx="12" fill="#2dd4bf"/>
    <rect x="918" y="614" width="118" height="38" rx="12" fill="#22d3ee"/>
  </g>
</svg>
