<svg width="1280" height="820" viewBox="0 0 1280 820" fill="none" xmlns="http://www.w3.org/2000/svg">
  <rect width="1280" height="820" fill="#07111f"/>
  <rect x="64" y="54" width="1152" height="712" rx="28" fill="#0f172a" stroke="#22d3ee" stroke-opacity=".35"/>
  <rect x="104" y="94" width="220" height="632" rx="18" fill="#020617"/>
  <rect x="362" y="94" width="814" height="118" rx="18" fill="#132238"/>
  <rect x="362" y="244" width="246" height="154" rx="18" fill="#0b7285" fill-opacity=".32"/>
  <rect x="640" y="244" width="246" height="154" rx="18" fill="#2563eb" fill-opacity=".26"/>
  <rect x="918" y="244" width="258" height="154" rx="18" fill="#14b8a6" fill-opacity=".24"/>
  <rect x="362" y="430" width="814" height="296" rx="18" fill="#020617"/>
  <text x="134" y="148" fill="#f8fafc" font-family="Inter, Arial" font-size="34" font-weight="700">Library</text>
  <text x="134" y="192" fill="#67e8f9" font-family="Inter, Arial" font-size="20">Admin Panel</text>
  <text x="398" y="151" fill="#f8fafc" font-family="Inter, Arial" font-size="42" font-weight="700">Library Management System</text>
  <text x="398" y="187" fill="#94a3b8" font-family="Inter, Arial" font-size="20">Books, students, borrowing records, and responsive admin workflows</text>
  <text x="398" y="324" fill="#f8fafc" font-family="Inter, Arial" font-size="32" font-weight="700">Books</text>
  <text x="676" y="324" fill="#f8fafc" font-family="Inter, Arial" font-size="32" font-weight="700">Students</text>
  <text x="954" y="324" fill="#f8fafc" font-family="Inter, Arial" font-size="32" font-weight="700">Reports</text>
  <g fill="#1e293b">
    <rect x="398" y="482" width="742" height="20" rx="10"/>
    <rect x="398" y="542" width="690" height="20" rx="10"/>
    <rect x="398" y="602" width="724" height="20" rx="10"/>
    <rect x="398" y="662" width="612" height="20" rx="10"/>
  </g>
</svg>
